<?xml version="1.0" encoding="UTF-8" standalone="no"?>
<!DOCTYPE svg PUBLIC "-//W3C//DTD SVG 1.1//EN" "http://www.w3.org/Graphics/SVG/1.1/DTD/svg11.dtd">
<!-- Created with Vectornator (http://vectornator.io/) -->
<svg height="100%" stroke-miterlimit="10" style="fill-rule:nonzero;clip-rule:evenodd;stroke-linecap:round;stroke-linejoin:round;" version="1.1" viewBox="0 0 1024 1024" width="100%" xml:space="preserve" xmlns="http://www.w3.org/2000/svg" xmlns:vectornator="http://vectornator.io" xmlns:xlink="http://www.w3.org/1999/xlink">
<defs>
<path d="M512 61.4375C263.16 61.4375 61.4375 263.16 61.4375 512C61.4375 760.84 263.16 962.562 512 962.562C760.84 962.562 962.562 760.84 962.562 512C962.562 263.16 760.84 61.4375 512 61.4375ZM396.688 228.688L408.312 228.688C412.603 228.688 416.062 234.476 416.062 241.594L416.062 266.844L746.031 403.688L416.062 540.781L416.062 782.406C416.062 789.524 412.603 795.312 408.312 795.312L396.688 795.312C392.397 795.312 388.906 789.524 388.906 782.406L388.906 241.594C388.906 234.476 392.397 228.687 396.688 228.688Z" id="Fill"/>
</defs>
<g id="Layer-1" vectornator:layerName="Layer 1">
<g opacity="1">
<mask height="901.125" id="StrokeMask" maskUnits="userSpaceOnUse" width="901.125" x="61.4375" y="61.4375">
<rect fill="#000000" height="901.125" stroke="none" width="901.125" x="61.4375" y="61.4375"/>
<use fill="#ffffff" fill-rule="evenodd" stroke="none" xlink:href="#Fill"/>
</mask>
<use fill="none" mask="url(#StrokeMask)" stroke="#b1b1b1" stroke-linecap="butt" stroke-linejoin="round" stroke-width="30" xlink:href="#Fill"/>
</g>
<path d="M396.688 228.688C392.397 228.687 388.906 234.476 388.906 241.594L388.906 782.406C388.906 789.524 392.397 795.312 396.688 795.312L408.312 795.312C412.603 795.312 416.062 789.524 416.062 782.406L416.062 540.781L746.031 403.688L416.062 266.844L416.062 241.594C416.062 234.476 412.603 228.688 408.312 228.688L396.688 228.688Z" fill="#ffffff" fill-rule="nonzero" opacity="0" stroke="none"/>
</g>
</svg>
