<?xml version="1.0" encoding="UTF-8" standalone="no"?>
<!DOCTYPE svg PUBLIC "-//W3C//DTD SVG 1.1//EN" "http://www.w3.org/Graphics/SVG/1.1/DTD/svg11.dtd">
<!-- Created with Vectornator (http://vectornator.io/) -->
<svg height="100%" stroke-miterlimit="10" style="fill-rule:nonzero;clip-rule:evenodd;stroke-linecap:round;stroke-linejoin:round;" version="1.1" viewBox="0 0 1024 1024" width="100%" xml:space="preserve" xmlns="http://www.w3.org/2000/svg" xmlns:vectornator="http://vectornator.io" xmlns:xlink="http://www.w3.org/1999/xlink">
<defs/>
<g id="Layer-1" vectornator:layerName="Layer 1">
<path d="M66.7151 512C66.7151 266.076 266.076 66.7151 512 66.7151C757.924 66.7151 957.285 266.076 957.285 512C957.285 757.924 757.924 957.285 512 957.285C266.076 957.285 66.7151 757.924 66.7151 512Z" fill="none" opacity="1" stroke="#000000" stroke-linecap="butt" stroke-linejoin="miter" stroke-width="50"/>
<path d="M261.585 393.236C261.585 393.236 287.68 302.671 346.081 302.671C404.482 302.671 431.609 394.746 431.609 394.746" fill="none" opacity="1" stroke="#000000" stroke-linecap="round" stroke-linejoin="miter" stroke-width="30"/>
<path d="M592.391 393.236C592.391 393.236 618.486 302.671 676.887 302.671C735.288 302.671 762.415 394.746 762.415 394.746" fill="none" opacity="1" stroke="#000000" stroke-linecap="round" stroke-linejoin="miter" stroke-width="30"/>
<path d="M706.766 750.427C693.427 717.682 596.054 733.233 550.477 713.815C508.438 695.905 475.569 644.754 431.609 644.754C339.97 644.754 342.859 687.499 317.234 750.469" fill="none" opacity="1" stroke="#000000" stroke-linecap="round" stroke-linejoin="miter" stroke-width="50"/>
</g>
</svg>
