<?xml version="1.0" encoding="UTF-8" standalone="no"?>
<!DOCTYPE svg PUBLIC "-//W3C//DTD SVG 1.1//EN" "http://www.w3.org/Graphics/SVG/1.1/DTD/svg11.dtd">
<!-- Created with Vectornator (http://vectornator.io/) -->
<svg height="100%" stroke-miterlimit="10" style="fill-rule:nonzero;clip-rule:evenodd;stroke-linecap:round;stroke-linejoin:round;" version="1.1" viewBox="0 0 1024 1024" width="100%" xml:space="preserve" xmlns="http://www.w3.org/2000/svg" xmlns:vectornator="http://vectornator.io" xmlns:xlink="http://www.w3.org/1999/xlink">
<defs/>
<g id="Layer-1" vectornator:layerName="Layer 1">
<path d="M66.7151 512C66.7151 266.076 266.076 66.7151 512 66.7151C757.924 66.7151 957.285 266.076 957.285 512C957.285 757.924 757.924 957.285 512 957.285C266.076 957.285 66.7151 757.924 66.7151 512Z" fill="none" opacity="1" stroke="#000000" stroke-linecap="butt" stroke-linejoin="miter" stroke-width="50"/>
<path d="M343.859 721.962C343.859 721.962 427.93 621.87 512 621.87C596.07 621.87 680.141 721.962 680.141 721.962" fill="none" opacity="1" stroke="#000000" stroke-linecap="round" stroke-linejoin="round" stroke-width="30"/>
<path d="M343.859 721.962C343.859 721.962 427.93 691.561 512 691.561C596.07 691.561 680.141 721.962 680.141 721.962" fill="none" opacity="1" stroke="#000000" stroke-linecap="round" stroke-linejoin="round" stroke-width="30"/>
<g opacity="1">
<path d="M252.944 363.385C252.944 363.385 303.292 326.968 356.087 326.968C408.882 326.968 464.124 363.385 464.124 363.385" fill="none" opacity="1" stroke="#000000" stroke-linecap="round" stroke-linejoin="miter" stroke-width="20"/>
<path d="M559.876 363.385C559.876 363.385 613.886 326.968 666.681 326.968C719.476 326.968 771.056 363.385 771.056 363.385" fill="none" opacity="1" stroke="#000000" stroke-linecap="round" stroke-linejoin="miter" stroke-width="20"/>
</g>
</g>
</svg>
